<svg width="457" height="453" viewBox="0 0 457 453" fill="none" xmlns="http://www.w3.org/2000/svg">
<g filter="url(#filter0_d_1637_8751)">
<rect x="41" y="37" width="375" height="379.103" rx="40" fill="white"/>
<path d="M221.73 135.803L226.243 140.316L235.269 131.29M208.19 135.803C208.19 138.47 208.716 141.111 209.736 143.575C210.757 146.039 212.253 148.278 214.139 150.163C216.025 152.049 218.264 153.545 220.728 154.566C223.192 155.587 225.832 156.112 228.5 156.112C231.167 156.112 233.807 155.587 236.271 154.566C238.735 153.545 240.974 152.049 242.86 150.163C244.746 148.278 246.242 146.039 247.263 143.575C248.283 141.111 248.809 138.47 248.809 135.803C248.809 133.136 248.283 130.495 247.263 128.031C246.242 125.567 244.746 123.328 242.86 121.442C240.974 119.556 238.735 118.06 236.271 117.04C233.807 116.019 231.167 115.494 228.5 115.494C225.832 115.494 223.192 116.019 220.728 117.04C218.264 118.06 216.025 119.556 214.139 121.442C212.253 123.328 210.757 125.567 209.736 128.031C208.716 130.495 208.19 133.136 208.19 135.803Z" stroke="#FFD900" stroke-width="3.28228" stroke-linecap="round" stroke-linejoin="round"/>
<path d="M184.503 204.854V201.969C186.226 202.61 188.173 202.931 190.345 202.931C192.981 202.931 194.299 202.05 194.299 200.287C194.299 199.004 193.49 198.363 191.871 198.363H189.179C185.661 198.363 183.902 196.761 183.902 193.555C183.902 190.03 186.406 188.267 191.415 188.267C193.338 188.267 195.161 188.547 196.884 189.108V191.993C195.161 191.352 193.338 191.031 191.415 191.031C188.53 191.031 187.087 191.873 187.087 193.555C187.087 194.838 187.784 195.479 189.179 195.479H191.871C195.614 195.479 197.485 197.081 197.485 200.287C197.485 203.893 195.105 205.696 190.345 205.696C188.173 205.696 186.226 205.415 184.503 204.854ZM211.248 192.954V205.575H208.759L208.375 203.965C206.924 205.039 205.386 205.575 203.759 205.575C201.179 205.575 199.889 204.049 199.889 200.996V192.954H203.074V200.912C203.074 202.306 203.683 203.003 204.901 203.003C205.935 203.003 206.989 202.59 208.062 201.765V192.954H211.248ZM223.58 205.215C222.538 205.455 221.457 205.575 220.335 205.575C215.847 205.575 213.604 203.392 213.604 199.025C213.604 194.978 215.847 192.954 220.335 192.954C221.457 192.954 222.538 193.075 223.58 193.315V195.839C222.538 195.599 221.537 195.479 220.575 195.479C218.051 195.479 216.789 196.661 216.789 199.025C216.789 201.709 218.051 203.051 220.575 203.051C221.537 203.051 222.538 202.931 223.58 202.691V205.215ZM234.999 205.215C233.958 205.455 232.876 205.575 231.754 205.575C227.266 205.575 225.023 203.392 225.023 199.025C225.023 194.978 227.266 192.954 231.754 192.954C232.876 192.954 233.958 193.075 234.999 193.315V195.839C233.958 195.599 232.956 195.479 231.994 195.479C229.47 195.479 228.208 196.661 228.208 199.025C228.208 201.709 229.47 203.051 231.994 203.051C232.956 203.051 233.958 202.931 234.999 202.691V205.215ZM242.428 192.954C246.258 192.954 248.173 194.91 248.173 198.82C248.173 199.341 248.137 199.862 248.065 200.383H239.687C239.687 202.162 240.993 203.051 243.606 203.051C244.88 203.051 246.154 202.931 247.428 202.691V205.215C246.314 205.455 244.96 205.575 243.365 205.575C238.79 205.575 236.502 203.424 236.502 199.121C236.502 195.01 238.477 192.954 242.428 192.954ZM239.687 198.171H245.072V198.075C245.072 196.328 244.191 195.455 242.428 195.455C240.745 195.455 239.831 196.36 239.687 198.171ZM250.565 204.974V202.33C251.968 202.891 253.586 203.171 255.421 203.171C256.792 203.171 257.477 202.731 257.477 201.849C257.477 201.008 257.016 200.587 256.094 200.587H253.811C251.246 200.587 249.964 199.325 249.964 196.801C249.964 194.156 251.835 192.834 255.578 192.834C257.164 192.834 258.659 193.075 260.061 193.555V196.2C258.659 195.639 257.136 195.358 255.493 195.358C253.771 195.358 252.909 195.799 252.909 196.681C252.909 197.522 253.41 197.943 254.412 197.943H256.455C259.26 197.943 260.662 199.205 260.662 201.729C260.662 204.373 258.875 205.696 255.301 205.696C253.546 205.696 251.968 205.455 250.565 204.974ZM262.898 204.974V202.33C264.3 202.891 265.919 203.171 267.754 203.171C269.124 203.171 269.809 202.731 269.809 201.849C269.809 201.008 269.349 200.587 268.427 200.587H266.143C263.579 200.587 262.297 199.325 262.297 196.801C262.297 194.156 264.168 192.834 267.91 192.834C269.497 192.834 270.991 193.075 272.394 193.555V196.2C270.991 195.639 269.469 195.358 267.826 195.358C266.103 195.358 265.242 195.799 265.242 196.681C265.242 197.522 265.743 197.943 266.744 197.943H268.788C271.592 197.943 272.995 199.205 272.995 201.729C272.995 204.373 271.208 205.696 267.634 205.696C265.879 205.696 264.3 205.455 262.898 204.974Z" fill="black"/>
<path d="M81.1138 234.704V231.12L78.3682 226.49H79.494L81.6422 230.304L83.7101 226.49H84.7095L82.1132 231.132V234.704H81.1138ZM87.4016 234.015C88.6079 234.015 89.3661 233.108 89.3661 231.752V231.672C89.3661 230.281 88.5964 229.385 87.4016 229.385C86.1954 229.385 85.4372 230.281 85.4372 231.66V231.752C85.4372 233.119 86.1839 234.015 87.4016 234.015ZM87.3902 234.808C85.6784 234.808 84.4492 233.51 84.4492 231.752V231.66C84.4492 229.856 85.7014 228.593 87.4016 228.593C89.1019 228.593 90.354 229.845 90.354 231.649V231.74C90.354 233.556 89.1019 234.808 87.3902 234.808ZM93.634 234.808C92.4393 234.808 91.5432 234.153 91.5432 232.499V228.696H92.4967V232.453C92.4967 233.51 92.9448 233.981 93.8868 233.981C94.7369 233.981 95.541 233.418 95.541 232.338V228.696H96.4945V234.704H95.541V233.751C95.2653 234.314 94.599 234.808 93.634 234.808ZM98.3527 229.098L97.7668 228.8L98.7893 226.364L99.6968 226.778L98.3527 229.098ZM102.047 234.704L99.8646 228.696H100.899L102.679 233.739L104.437 228.696H105.425L103.265 234.704H102.047ZM108.739 234.808C107.039 234.808 105.833 233.613 105.833 231.763V231.672C105.833 229.856 106.993 228.593 108.648 228.593C110.038 228.593 111.347 229.431 111.347 231.58V231.89H106.821C106.867 233.257 107.522 234.015 108.751 234.015C109.681 234.015 110.221 233.67 110.348 232.97H111.301C111.094 234.176 110.095 234.808 108.739 234.808ZM106.855 231.12H110.371C110.279 229.879 109.636 229.385 108.648 229.385C107.671 229.385 107.016 230.052 106.855 231.12ZM117.252 234.808C115.816 234.808 114.955 234.084 114.897 232.855H115.828C115.897 233.567 116.276 234.015 117.241 234.015C118.148 234.015 118.55 233.705 118.55 233.062C118.55 232.43 118.079 232.223 117.149 232.051C115.586 231.763 115.058 231.327 115.058 230.281C115.058 229.167 116.149 228.593 117.091 228.593C118.171 228.593 119.102 229.029 119.263 230.327H118.343C118.206 229.673 117.838 229.385 117.08 229.385C116.391 229.385 115.943 229.73 115.943 230.247C115.943 230.787 116.241 231.005 117.344 231.201C118.585 231.43 119.458 231.706 119.458 232.981C119.458 234.073 118.711 234.808 117.252 234.808ZM122.714 234.808C121.52 234.808 120.623 234.153 120.623 232.499V228.696H121.577V232.453C121.577 233.51 122.025 233.981 122.967 233.981C123.817 233.981 124.621 233.418 124.621 232.338V228.696H125.575V234.704H124.621V233.751C124.346 234.314 123.679 234.808 122.714 234.808ZM129.765 234.808C128.088 234.808 126.824 233.624 126.824 231.763V231.672C126.824 229.833 128.134 228.593 129.742 228.593C130.994 228.593 132.166 229.167 132.35 230.695H131.408C131.258 229.742 130.569 229.385 129.742 229.385C128.651 229.385 127.812 230.259 127.812 231.672V231.763C127.812 233.234 128.616 234.015 129.777 234.015C130.627 234.015 131.396 233.521 131.5 232.545H132.384C132.258 233.843 131.213 234.808 129.765 234.808ZM136.087 234.808C134.41 234.808 133.146 233.624 133.146 231.763V231.672C133.146 229.833 134.456 228.593 136.064 228.593C137.316 228.593 138.488 229.167 138.672 230.695H137.73C137.58 229.742 136.891 229.385 136.064 229.385C134.973 229.385 134.134 230.259 134.134 231.672V231.763C134.134 233.234 134.938 234.015 136.098 234.015C136.949 234.015 137.718 233.521 137.822 232.545H138.706C138.58 233.843 137.534 234.808 136.087 234.808ZM142.375 234.808C140.674 234.808 139.468 233.613 139.468 231.763V231.672C139.468 229.856 140.628 228.593 142.283 228.593C143.673 228.593 144.982 229.431 144.982 231.58V231.89H140.456C140.502 233.257 141.157 234.015 142.386 234.015C143.317 234.015 143.856 233.67 143.983 232.97H144.936C144.73 234.176 143.73 234.808 142.375 234.808ZM140.49 231.12H144.006C143.914 229.879 143.271 229.385 142.283 229.385C141.306 229.385 140.651 230.052 140.49 231.12ZM148.133 234.808C146.697 234.808 145.835 234.084 145.778 232.855H146.708C146.777 233.567 147.156 234.015 148.121 234.015C149.029 234.015 149.431 233.705 149.431 233.062C149.431 232.43 148.96 232.223 148.029 232.051C146.467 231.763 145.939 231.327 145.939 230.281C145.939 229.167 147.03 228.593 147.972 228.593C149.052 228.593 149.982 229.029 150.143 230.327H149.224C149.086 229.673 148.719 229.385 147.96 229.385C147.271 229.385 146.823 229.73 146.823 230.247C146.823 230.787 147.122 231.005 148.225 231.201C149.465 231.43 150.338 231.706 150.338 232.981C150.338 234.073 149.592 234.808 148.133 234.808ZM153.423 234.808C151.987 234.808 151.125 234.084 151.068 232.855H151.998C152.067 233.567 152.446 234.015 153.411 234.015C154.319 234.015 154.721 233.705 154.721 233.062C154.721 232.43 154.25 232.223 153.319 232.051C151.757 231.763 151.228 231.327 151.228 230.281C151.228 229.167 152.32 228.593 153.262 228.593C154.342 228.593 155.272 229.029 155.433 230.327H154.514C154.376 229.673 154.008 229.385 153.25 229.385C152.561 229.385 152.113 229.73 152.113 230.247C152.113 230.787 152.412 231.005 153.515 231.201C154.755 231.43 155.628 231.706 155.628 232.981C155.628 234.073 154.882 234.808 153.423 234.808ZM157.058 234.704V229.5H156.197V228.696H157.058V227.72C157.058 226.502 157.656 225.79 158.85 225.79C159.16 225.79 159.321 225.824 159.563 225.905V226.709C159.39 226.64 159.149 226.582 158.885 226.582C158.264 226.582 158.012 227.007 158.012 227.616V228.696H159.482V229.5H158.012V234.704H157.058ZM162.626 234.808C161.432 234.808 160.536 234.153 160.536 232.499V228.696H161.489V232.453C161.489 233.51 161.937 233.981 162.879 233.981C163.729 233.981 164.533 233.418 164.533 232.338V228.696H165.487V234.704H164.533V233.751C164.258 234.314 163.591 234.808 162.626 234.808ZM167.207 234.704V225.824H168.172V234.704H167.207ZM169.917 234.704V225.824H170.882V234.704H169.917ZM173.143 236.795L174.281 234.084L171.926 228.696H172.948L174.786 233.004L176.452 228.696H177.428L174.108 236.795H173.143ZM183.126 234.808C181.69 234.808 180.828 234.084 180.771 232.855H181.701C181.77 233.567 182.149 234.015 183.114 234.015C184.022 234.015 184.424 233.705 184.424 233.062C184.424 232.43 183.953 232.223 183.022 232.051C181.46 231.763 180.932 231.327 180.932 230.281C180.932 229.167 182.023 228.593 182.965 228.593C184.045 228.593 184.975 229.029 185.136 230.327H184.217C184.079 229.673 183.712 229.385 182.953 229.385C182.264 229.385 181.816 229.73 181.816 230.247C181.816 230.787 182.115 231.005 183.218 231.201C184.458 231.43 185.331 231.706 185.331 232.981C185.331 234.073 184.585 234.808 183.126 234.808ZM187.705 234.704L185.855 228.696H186.889L188.291 233.533L189.75 228.696H190.577L191.944 233.533L193.357 228.696H194.333L192.461 234.704H191.404L190.152 230.201L188.75 234.704H187.705ZM196.782 234.808C195.668 234.808 194.783 234.268 194.783 233.039C194.783 231.649 196.254 231.178 197.793 231.178H198.655V230.741C198.655 229.787 198.287 229.385 197.368 229.385C196.541 229.385 196.081 229.73 195.99 230.465H195.036C195.162 229.098 196.254 228.593 197.414 228.593C198.563 228.593 199.608 229.064 199.608 230.741V234.704H198.655V233.946C198.207 234.509 197.667 234.808 196.782 234.808ZM196.874 234.05C197.885 234.05 198.655 233.533 198.655 232.602V231.855H197.828C196.621 231.855 195.737 232.154 195.737 233.039C195.737 233.659 196.036 234.05 196.874 234.05ZM201.251 236.795V228.696H202.205V229.707C202.55 229.121 203.365 228.593 204.238 228.593C205.812 228.593 206.973 229.742 206.973 231.614V231.706C206.973 233.544 205.893 234.808 204.238 234.808C203.25 234.808 202.55 234.314 202.205 233.716V236.795H201.251ZM204.146 234.015C205.341 234.015 205.985 233.211 205.985 231.752V231.66C205.985 230.144 205.146 229.385 204.135 229.385C203.021 229.385 202.171 230.121 202.171 231.66V231.752C202.171 233.291 202.975 234.015 204.146 234.015ZM213.832 236.477V234.836C211.561 234.678 210.589 233.431 210.484 231.777H212.427C212.519 232.538 212.795 233.155 213.832 233.313V230.779C211.744 230.451 210.747 229.689 210.747 227.956C210.747 226.446 211.954 225.33 213.832 225.199V224.03H214.764V225.212C216.55 225.37 217.626 226.262 217.784 227.956H215.906C215.788 227.273 215.46 226.853 214.764 226.722V229.072C216.733 229.374 217.941 230.03 217.941 231.855C217.941 233.431 216.838 234.691 214.764 234.836V236.477H213.832ZM215.998 232.079C215.998 231.448 215.736 231.133 214.764 230.923V233.313C215.526 233.181 215.998 232.722 215.998 232.079ZM212.637 227.785C212.637 228.389 212.86 228.717 213.832 228.914V226.696C213.057 226.801 212.637 227.234 212.637 227.785ZM222.099 234.849C219.788 234.849 218.711 233.588 218.619 231.908H220.576C220.694 232.696 221.009 233.221 222.085 233.221C223.044 233.221 223.556 232.551 223.556 231.553C223.556 230.542 222.978 229.912 222.033 229.912C221.153 229.912 220.615 230.227 220.234 230.661H219.053L219.184 225.317H225.131V226.932H220.773L220.733 229.282C221.101 228.836 221.757 228.416 222.821 228.416C224.528 228.416 225.696 229.584 225.696 231.58C225.696 233.575 224.265 234.849 222.099 234.849ZM230.677 233.181C232.003 233.181 232.607 232.17 232.607 230.201V229.781C232.607 227.89 231.95 226.827 230.65 226.827C229.337 226.827 228.668 227.838 228.668 229.781V230.227C228.668 232.197 229.364 233.181 230.677 233.181ZM230.624 234.849C228.129 234.849 226.541 233.116 226.541 230.24V229.794C226.541 226.906 228.221 225.186 230.637 225.186C233.053 225.186 234.72 226.84 234.72 229.755V230.188C234.72 233.063 233.158 234.849 230.624 234.849ZM239.774 233.181C241.1 233.181 241.704 232.17 241.704 230.201V229.781C241.704 227.89 241.047 226.827 239.747 226.827C238.434 226.827 237.765 227.838 237.765 229.781V230.227C237.765 232.197 238.461 233.181 239.774 233.181ZM239.721 234.849C237.227 234.849 235.638 233.116 235.638 230.24V229.794C235.638 226.906 237.318 225.186 239.734 225.186C242.15 225.186 243.817 226.84 243.817 229.755V230.188C243.817 233.063 242.255 234.849 239.721 234.849ZM250.866 234.808C248.982 234.808 247.914 233.705 247.914 231.706V226.49H248.913V231.591C248.913 233.314 249.522 233.981 250.889 233.981C252.199 233.981 252.98 233.452 252.98 231.442V226.49H253.979V231.58C253.979 233.579 252.98 234.808 250.866 234.808ZM258.406 234.808C256.211 234.808 255.419 233.602 255.269 232.2H256.234C256.361 233.176 256.751 234.004 258.406 234.004C259.463 234.004 260.278 233.383 260.278 232.453C260.278 231.522 259.853 231.132 258.291 230.879C256.568 230.615 255.545 230.075 255.545 228.616C255.545 227.352 256.636 226.387 258.187 226.387C259.83 226.387 260.853 227.191 261.013 228.65H260.117C259.922 227.616 259.325 227.191 258.187 227.191C257.062 227.191 256.476 227.754 256.476 228.524C256.476 229.328 256.774 229.742 258.452 229.994C260.278 230.281 261.243 230.833 261.243 232.384C261.243 233.762 260.037 234.808 258.406 234.808ZM263.724 233.889H264.85C266.964 233.889 268.021 232.625 268.021 230.615V230.523C268.021 228.627 267.101 227.295 264.838 227.295H263.724V233.889ZM262.725 234.704V226.49H264.896C267.722 226.49 269.054 228.237 269.054 230.523V230.626C269.054 232.901 267.745 234.704 264.873 234.704H262.725ZM275.062 234.785C273.971 234.785 273.442 234.141 273.442 233.199V229.5H272.581V228.696H273.442V227.329H274.396V228.696H275.797V229.5H274.396V233.108C274.396 233.693 274.66 233.981 275.142 233.981C275.441 233.981 275.671 233.935 275.878 233.854V234.658C275.682 234.727 275.453 234.785 275.062 234.785ZM279.594 234.015C280.8 234.015 281.558 233.108 281.558 231.752V231.672C281.558 230.281 280.788 229.385 279.594 229.385C278.387 229.385 277.629 230.281 277.629 231.66V231.752C277.629 233.119 278.376 234.015 279.594 234.015ZM279.582 234.808C277.87 234.808 276.641 233.51 276.641 231.752V231.66C276.641 229.856 277.893 228.593 279.594 228.593C281.294 228.593 282.546 229.845 282.546 231.649V231.74C282.546 233.556 281.294 234.808 279.582 234.808ZM287.143 236.795L288.28 234.084L285.925 228.696H286.948L288.786 233.004L290.452 228.696H291.428L288.108 236.795H287.143ZM294.79 234.015C295.996 234.015 296.754 233.108 296.754 231.752V231.672C296.754 230.281 295.985 229.385 294.79 229.385C293.584 229.385 292.826 230.281 292.826 231.66V231.752C292.826 233.119 293.572 234.015 294.79 234.015ZM294.778 234.808C293.067 234.808 291.838 233.51 291.838 231.752V231.66C291.838 229.856 293.09 228.593 294.79 228.593C296.49 228.593 297.742 229.845 297.742 231.649V231.74C297.742 233.556 296.49 234.808 294.778 234.808ZM301.022 234.808C299.828 234.808 298.932 234.153 298.932 232.499V228.696H299.885V232.453C299.885 233.51 300.333 233.981 301.275 233.981C302.125 233.981 302.929 233.418 302.929 232.338V228.696H303.883V234.704H302.929V233.751C302.654 234.314 301.987 234.808 301.022 234.808ZM305.58 234.704V228.696H306.534V229.776C306.913 229.098 307.43 228.627 308.51 228.593V229.489C307.303 229.546 306.534 229.925 306.534 231.407V234.704H305.58ZM316.122 234.808C313.595 234.808 312.147 233.05 312.147 230.649V230.557C312.147 228.156 313.767 226.364 316.122 226.364C317.753 226.364 319.212 227.122 319.465 228.972H318.465C318.236 227.662 317.34 227.157 316.145 227.157C314.261 227.157 313.181 228.535 313.181 230.546V230.638C313.181 232.671 314.192 234.004 316.122 234.004C317.903 234.004 318.672 232.843 318.707 231.384H316.306V230.557H319.683V231.166C319.683 233.544 318.224 234.808 316.122 234.808ZM321.126 234.704V226.49H323.596C325.124 226.49 326.238 226.996 326.238 228.616V228.662C326.238 229.408 325.94 230.075 324.997 230.396C326.192 230.684 326.64 231.292 326.64 232.361V232.407C326.64 233.958 325.583 234.704 323.941 234.704H321.126ZM322.103 233.923H323.918C325.112 233.923 325.664 233.395 325.664 232.395V232.349C325.664 231.338 325.101 230.856 323.78 230.856H322.103V233.923ZM322.103 230.075H323.596C324.802 230.075 325.262 229.638 325.262 228.627V228.581C325.262 227.651 324.722 227.272 323.573 227.272H322.103V230.075ZM328.043 234.704V226.49H330.375C331.949 226.49 333.247 227.18 333.247 228.891V228.937C333.247 230.684 331.937 231.361 330.375 231.361H329.042V234.704H328.043ZM329.042 230.569H330.444C331.615 230.569 332.247 229.994 332.247 228.937V228.891C332.247 227.731 331.558 227.295 330.444 227.295H329.042V230.569ZM338.734 234.808C337.62 234.808 336.736 234.268 336.736 233.039C336.736 231.649 338.206 231.178 339.745 231.178H340.607V230.741C340.607 229.787 340.239 229.385 339.32 229.385C338.493 229.385 338.034 229.73 337.942 230.465H336.988C337.115 229.098 338.206 228.593 339.366 228.593C340.515 228.593 341.561 229.064 341.561 230.741V234.704H340.607V233.946C340.159 234.509 339.619 234.808 338.734 234.808ZM338.826 234.05C339.837 234.05 340.607 233.533 340.607 232.602V231.855H339.78C338.574 231.855 337.689 232.154 337.689 233.039C337.689 233.659 337.988 234.05 338.826 234.05ZM345.697 234.808C344.019 234.808 342.756 233.624 342.756 231.763V231.672C342.756 229.833 344.065 228.593 345.674 228.593C346.926 228.593 348.098 229.167 348.281 230.695H347.339C347.19 229.742 346.501 229.385 345.674 229.385C344.582 229.385 343.744 230.259 343.744 231.672V231.763C343.744 233.234 344.548 234.015 345.708 234.015C346.558 234.015 347.328 233.521 347.431 232.545H348.316C348.19 233.843 347.144 234.808 345.697 234.808ZM352.019 234.808C350.341 234.808 349.078 233.624 349.078 231.763V231.672C349.078 229.833 350.387 228.593 351.996 228.593C353.248 228.593 354.42 229.167 354.603 230.695H353.661C353.512 229.742 352.823 229.385 351.996 229.385C350.904 229.385 350.066 230.259 350.066 231.672V231.763C350.066 233.234 350.87 234.015 352.03 234.015C352.88 234.015 353.65 233.521 353.753 232.545H354.638C354.511 233.843 353.466 234.808 352.019 234.808ZM358.352 234.015C359.558 234.015 360.316 233.108 360.316 231.752V231.672C360.316 230.281 359.547 229.385 358.352 229.385C357.146 229.385 356.388 230.281 356.388 231.66V231.752C356.388 233.119 357.134 234.015 358.352 234.015ZM358.341 234.808C356.629 234.808 355.4 233.51 355.4 231.752V231.66C355.4 229.856 356.652 228.593 358.352 228.593C360.052 228.593 361.304 229.845 361.304 231.649V231.74C361.304 233.556 360.052 234.808 358.341 234.808ZM364.584 234.808C363.39 234.808 362.494 234.153 362.494 232.499V228.696H363.447V232.453C363.447 233.51 363.895 233.981 364.837 233.981C365.687 233.981 366.491 233.418 366.491 232.338V228.696H367.445V234.704H366.491V233.751C366.216 234.314 365.549 234.808 364.584 234.808ZM369.142 234.704V228.696H370.096V229.65C370.372 229.087 371.038 228.593 372.026 228.593C373.267 228.593 374.14 229.271 374.14 231.017V234.704H373.186V230.948C373.186 229.891 372.738 229.42 371.773 229.42C370.889 229.42 370.096 229.983 370.096 231.063V234.704H369.142ZM377.605 234.785C376.514 234.785 375.985 234.141 375.985 233.199V229.5H375.124V228.696H375.985V227.329H376.939V228.696H378.34V229.5H376.939V233.108C376.939 233.693 377.203 233.981 377.685 233.981C377.984 233.981 378.214 233.935 378.421 233.854V234.658C378.225 234.727 377.996 234.785 377.605 234.785Z" fill="black" fill-opacity="0.7"/>
<rect x="145.213" y="303.76" width="166.575" height="40.2079" rx="7.7954" fill="#FFD900"/>
<rect x="145.213" y="303.76" width="166.575" height="40.2079" rx="7.7954" stroke="#FFD900" stroke-width="0.820569"/>
<path d="M196.062 327.467C193.534 327.467 192.087 325.71 192.087 323.309V323.217C192.087 320.816 193.707 319.024 196.062 319.024C197.693 319.024 199.152 319.782 199.405 321.632H198.405C198.175 320.322 197.279 319.816 196.085 319.816C194.201 319.816 193.121 321.195 193.121 323.205V323.297C193.121 325.331 194.132 326.663 196.062 326.663C197.842 326.663 198.612 325.503 198.646 324.044H196.245V323.217H199.623V323.826C199.623 326.204 198.164 327.467 196.062 327.467ZM203.501 326.675C204.707 326.675 205.466 325.767 205.466 324.412V324.331C205.466 322.941 204.696 322.045 203.501 322.045C202.295 322.045 201.537 322.941 201.537 324.32V324.412C201.537 325.779 202.284 326.675 203.501 326.675ZM203.49 327.467C201.778 327.467 200.549 326.169 200.549 324.412V324.32C200.549 322.516 201.801 321.252 203.501 321.252C205.201 321.252 206.454 322.505 206.454 324.308V324.4C206.454 326.215 205.201 327.467 203.49 327.467ZM212.337 327.444C211.246 327.444 210.718 326.801 210.718 325.859V322.16H209.856V321.356H210.718V319.989H211.671V321.356H213.073V322.16H211.671V325.767C211.671 326.353 211.935 326.64 212.418 326.64C212.716 326.64 212.946 326.594 213.153 326.514V327.318C212.958 327.387 212.728 327.444 212.337 327.444ZM216.869 326.675C218.075 326.675 218.833 325.767 218.833 324.412V324.331C218.833 322.941 218.064 322.045 216.869 322.045C215.663 322.045 214.905 322.941 214.905 324.32V324.412C214.905 325.779 215.651 326.675 216.869 326.675ZM216.858 327.467C215.146 327.467 213.917 326.169 213.917 324.412V324.32C213.917 322.516 215.169 321.252 216.869 321.252C218.569 321.252 219.821 322.505 219.821 324.308V324.4C219.821 326.215 218.569 327.467 216.858 327.467ZM225.383 327.467C224.269 327.467 223.385 326.927 223.385 325.698C223.385 324.308 224.855 323.837 226.394 323.837H227.256V323.401C227.256 322.447 226.888 322.045 225.969 322.045C225.142 322.045 224.683 322.39 224.591 323.125H223.637C223.764 321.758 224.855 321.252 226.015 321.252C227.164 321.252 228.21 321.723 228.21 323.401V327.364H227.256V326.606C226.808 327.169 226.268 327.467 225.383 327.467ZM225.475 326.709C226.486 326.709 227.256 326.192 227.256 325.262V324.515H226.429C225.223 324.515 224.338 324.814 224.338 325.698C224.338 326.319 224.637 326.709 225.475 326.709ZM232.346 327.467C230.668 327.467 229.405 326.284 229.405 324.423V324.331C229.405 322.493 230.714 321.252 232.323 321.252C233.575 321.252 234.747 321.827 234.93 323.355H233.988C233.839 322.401 233.15 322.045 232.323 322.045C231.231 322.045 230.393 322.918 230.393 324.331V324.423C230.393 325.894 231.197 326.675 232.357 326.675C233.207 326.675 233.977 326.181 234.08 325.204H234.965C234.839 326.502 233.793 327.467 232.346 327.467ZM238.668 327.467C236.99 327.467 235.727 326.284 235.727 324.423V324.331C235.727 322.493 237.036 321.252 238.645 321.252C239.897 321.252 241.069 321.827 241.252 323.355H240.31C240.161 322.401 239.472 322.045 238.645 322.045C237.553 322.045 236.715 322.918 236.715 324.331V324.423C236.715 325.894 237.519 326.675 238.679 326.675C239.529 326.675 240.299 326.181 240.402 325.204H241.287C241.16 326.502 240.115 327.467 238.668 327.467ZM245.001 326.675C246.207 326.675 246.966 325.767 246.966 324.412V324.331C246.966 322.941 246.196 322.045 245.001 322.045C243.795 322.045 243.037 322.941 243.037 324.32V324.412C243.037 325.779 243.783 326.675 245.001 326.675ZM244.99 327.467C243.278 327.467 242.049 326.169 242.049 324.412V324.32C242.049 322.516 243.301 321.252 245.001 321.252C246.701 321.252 247.953 322.505 247.953 324.308V324.4C247.953 326.215 246.701 327.467 244.99 327.467ZM251.233 327.467C250.039 327.467 249.143 326.813 249.143 325.158V321.356H250.096V325.112C250.096 326.169 250.544 326.64 251.486 326.64C252.336 326.64 253.14 326.077 253.14 324.997V321.356H254.094V327.364H253.14V326.411C252.865 326.973 252.198 327.467 251.233 327.467ZM255.791 327.364V321.356H256.745V322.309C257.021 321.746 257.687 321.252 258.675 321.252C259.915 321.252 260.789 321.93 260.789 323.676V327.364H259.835V323.607C259.835 322.551 259.387 322.08 258.422 322.08C257.537 322.08 256.745 322.642 256.745 323.722V327.364H255.791ZM264.254 327.444C263.163 327.444 262.634 326.801 262.634 325.859V322.16H261.773V321.356H262.634V319.989H263.588V321.356H264.989V322.16H263.588V325.767C263.588 326.353 263.852 326.64 264.334 326.64C264.633 326.64 264.863 326.594 265.07 326.514V327.318C264.874 327.387 264.645 327.444 264.254 327.444Z" fill="#181818"/>
</g>
<defs>
<filter id="filter0_d_1637_8751" x="0" y="-4" width="457" height="461.103" filterUnits="userSpaceOnUse" color-interpolation-filters="sRGB">
<feFlood flood-opacity="0" result="BackgroundImageFix"/>
<feColorMatrix in="SourceAlpha" type="matrix" values="0 0 0 0 0 0 0 0 0 0 0 0 0 0 0 0 0 0 127 0" result="hardAlpha"/>
<feMorphology radius="2" operator="dilate" in="SourceAlpha" result="effect1_dropShadow_1637_8751"/>
<feOffset/>
<feGaussianBlur stdDeviation="19.5"/>
<feComposite in2="hardAlpha" operator="out"/>
<feColorMatrix type="matrix" values="0 0 0 0 0 0 0 0 0 0 0 0 0 0 0 0 0 0 0.1 0"/>
<feBlend mode="normal" in2="BackgroundImageFix" result="effect1_dropShadow_1637_8751"/>
<feBlend mode="normal" in="SourceGraphic" in2="effect1_dropShadow_1637_8751" result="shape"/>
</filter>
</defs>
</svg>
